<?xml version="1.0" encoding="UTF-8" standalone="no"?><!DOCTYPE svg PUBLIC "-//W3C//DTD SVG 1.1//EN" "http://www.w3.org/Graphics/SVG/1.1/DTD/svg11.dtd"><svg width="100%" height="100%" viewBox="0 0 1100 959" version="1.1" xmlns="http://www.w3.org/2000/svg" xmlns:xlink="http://www.w3.org/1999/xlink" xml:space="preserve" xmlns:serif="http://www.serif.com/" style="fill-rule:evenodd;clip-rule:evenodd;stroke-linejoin:round;stroke-miterlimit:2;"><rect id="Artboard1" x="0" y="0" width="1100" height="958.333" style="fill:none;"/><clipPath id="_clip1"><rect x="0" y="0" width="1100" height="958.333"/></clipPath><g clip-path="url(#_clip1)"><path d="M0,958.333l0,-958.333l829.167,0l0,273.815l-206.25,0l0,206.252l137.5,0l68.75,68.75l0,409.517l-829.167,0Zm471.132,-462.5l-90.47,52.233c-7.966,4.599 -10.7,14.801 -6.1,22.767c4.599,7.966 14.801,10.7 22.767,6.1l144.338,-83.333c2.535,-1.465 4.636,-3.566 6.1,-6.1c1.463,-2.536 2.232,-5.406 2.233,-8.333c-0.001,-2.928 -0.77,-5.797 -2.233,-8.333c-1.465,-2.535 -3.566,-4.636 -6.1,-6.1l-144.338,-83.333c-7.966,-4.599 -18.168,-1.866 -22.767,6.1c-4.599,7.966 -1.866,18.168 6.1,22.767l90.47,52.233l-375.299,0c-9.199,-0 -16.667,7.468 -16.667,16.667c-0,9.199 7.468,16.667 16.667,16.667l375.299,0Z" style="fill:#027bff;"/><path d="M895.833,892.6l0,65.733l206.25,0l0,-958.333l-206.25,0l0,67.601l139.583,0l0,824.999l-139.583,0Z" style="fill:#027bff;fill-rule:nonzero;"/></g></svg>